HIERARCHY
ROOT Hips
{
	OFFSET -13.091600 -28.302996 44.698402
	CHANNELS 6 Xposition Yposition Zposition Zrotation Xrotation Yrotation
	JOINT Chest
	{
		OFFSET -0.673000 0.623899 5.369202
		CHANNELS 6 Xposition Yposition Zposition Zrotation Xrotation Yrotation
		JOINT Chest2
		{
			OFFSET 0.000000 0.000000 4.415001
			CHANNELS 6 Xposition Yposition Zposition Zrotation Xrotation Yrotation
			JOINT Neck
			{
				OFFSET 0.000000 0.000002 10.273300
				CHANNELS 6 Xposition Yposition Zposition Zrotation Xrotation Yrotation
				JOINT Head
				{
					OFFSET 0.000000 0.000000 2.173897
					CHANNELS 6 Xposition Yposition Zposition Zrotation Xrotation Yrotation
					End Site
					{
						OFFSET 0.000000 0.000000 9.961800
					}
				}
			}
			JOINT LeftCollar
			{
				OFFSET 2.359900 -0.565201 5.928101
				CHANNELS 6 Xposition Yposition Zposition Zrotation Xrotation Yrotation
				JOINT LeftShoulder
				{
					OFFSET 5.443700 0.000000 0.000000
					CHANNELS 6 Xposition Yposition Zposition Zrotation Xrotation Yrotation
					JOINT LeftElbow
					{
						OFFSET 0.000000 0.000000 -10.615799
						CHANNELS 6 Xposition Yposition Zposition Zrotation Xrotation Yrotation
						JOINT LeftWrist
						{
							OFFSET 0.000000 -0.000002 -13.110302
							CHANNELS 6 Xposition Yposition Zposition Zrotation Xrotation Yrotation
							End Site
							{
								OFFSET 0.000000 0.000000 -2.173901
							}
						}
					}
				}
			}
			JOINT RightCollar
			{
				OFFSET -2.636600 -1.718800 6.889698
				CHANNELS 6 Xposition Yposition Zposition Zrotation Xrotation Yrotation
				JOINT RightShoulder
				{
					OFFSET -4.139101 0.000000 0.000000
					CHANNELS 6 Xposition Yposition Zposition Zrotation Xrotation Yrotation
					JOINT RightElbow
					{
						OFFSET 0.000000 0.000000 -10.471802
						CHANNELS 6 Xposition Yposition Zposition Zrotation Xrotation Yrotation
						JOINT RightWrist
						{
							OFFSET 0.000000 0.000000 -12.281898
							CHANNELS 6 Xposition Yposition Zposition Zrotation Xrotation Yrotation
							End Site
							{
								OFFSET 0.000000 -0.000002 -2.173901
							}
						}
					}
				}
			}
		}
	}
	JOINT LeftHip
	{
		OFFSET 2.273400 0.176701 -2.518002
		CHANNELS 6 Xposition Yposition Zposition Zrotation Xrotation Yrotation
		JOINT LeftKnee
		{
			OFFSET 0.000000 -0.000002 -20.456402
			CHANNELS 6 Xposition Yposition Zposition Zrotation Xrotation Yrotation
			JOINT LeftAnkle
			{
				OFFSET 0.000000 -0.000002 -16.635300
				CHANNELS 6 Xposition Yposition Zposition Zrotation Xrotation Yrotation
				End Site
				{
					OFFSET 0.000000 -8.812399 0.000001
				}
			}
		}
	}
	JOINT RightHip
	{
		OFFSET -1.914800 0.018101 -2.699299
		CHANNELS 6 Xposition Yposition Zposition Zrotation Xrotation Yrotation
		JOINT RightKnee
		{
			OFFSET 0.000000 -0.000002 -20.148901
			CHANNELS 6 Xposition Yposition Zposition Zrotation Xrotation Yrotation
			JOINT RightAnkle
			{
				OFFSET 0.000000 -0.000002 -16.838301
				CHANNELS 6 Xposition Yposition Zposition Zrotation Xrotation Yrotation
				End Site
				{
					OFFSET 0.000000 -8.328398 0.000001
				}
			}
		}
	}
}
MOTION
Frames: 7
Frame Time: 0.041667
-29.231398 -9.642796 39.025906 345.641778 -3.976483 11.385533 -0.672996 0.623901 5.369203 -16.885785 -21.087569 21.008847 -0.000002 -0.000003 4.415004 5.728501 -1.729593 -0.225737 -0.000002 -0.000005 10.273303 -49.811986 -20.975350 4.100397 -0.000003 -0.000002 2.173909 -5.283346 -6.400043 -8.637974 2.359903 -0.565209 5.928097 17.879244 -17.577301 -43.573786 5.443697 -0.000001 -0.000003 155.666978 249.724065 -296.198721 -0.000004 0.000001 -10.615794 349.477475 -125.752320 309.041826 0.000001 -0.000001 -13.110297 -330.915015 -7.102368 7.785517 -2.636601 -1.718812 6.889699 4.106784 11.947653 11.817658 -4.139099 -0.000001 -0.000001 294.456859 -140.301948 374.262784 -0.000003 -0.000005 -10.471791 -23.272534 -3.994166 -0.575698 -0.000002 -0.000003 -12.281897 -13.546953 -2.149690 8.876215 2.273398 0.176698 -2.518000 -15.530329 -164.190207 -125.492254 0.000000 -0.000004 -20.456394 -190.711613 -9.670620 106.008573 -0.000006 -0.000005 -16.635296 70.096736 26.456951 49.285136 -1.914795 0.018100 -2.699300 157.716690 196.184193 153.562979 -0.000004 -0.000004 -20.148899 51.653172 66.006736 -42.091884 0.000001 -0.000002 -16.838301 -41.636942 -2.811958 -5.023225
-29.123899 -9.689390 39.011200 345.753957 -3.798033 11.241589 -0.672999 0.623904 5.369207 -17.040859 -21.057861 20.849796 0.000000 0.000004 4.414999 5.716257 -1.752820 -0.228699 0.000001 0.000001 10.273304 -49.741402 -20.997410 4.099071 -0.000002 -0.000005 2.173901 -5.298136 -6.465908 -8.573948 2.359899 -0.565205 5.928099 17.920876 -17.572320 -43.553634 5.443697 0.000000 0.000005 155.628264 249.875313 -295.966905 -0.000007 0.000011 -10.615797 349.520997 -125.677475 309.091250 -0.000001 -0.000001 -13.110299 -331.007086 -7.123997 7.913192 -2.636600 -1.718802 6.889698 4.120146 11.961243 11.718452 -4.139098 -0.000006 -0.000003 294.954862 -140.653348 374.582764 0.000002 -0.000003 -10.471806 -23.229094 -4.280801 -0.886050 0.000001 -0.000002 -12.281900 -13.354757 -2.145112 9.108441 2.273396 0.176700 -2.518003 -17.176819 -163.314345 -126.327081 -0.000002 -0.000007 -20.456398 -189.462604 -8.732095 106.148598 -0.000007 -0.000006 -16.635300 69.883538 26.050231 48.660259 -1.914800 0.018106 -2.699300 157.463700 196.478478 153.741247 -0.000004 -0.000006 -20.148901 51.851466 66.356579 -42.223686 -0.000001 -0.000002 -16.838301 -41.332340 -2.862077 -5.225282
-29.004995 -9.740395 38.996799 345.858677 -3.611125 11.036651 -0.673004 0.623899 5.369210 -17.168258 -21.076586 20.733251 -0.000002 -0.000001 4.415009 5.709268 -1.770276 -0.230878 0.000002 0.000007 10.273300 -49.597972 -20.977420 4.149270 -0.000002 -0.000005 2.173898 -5.196083 -6.494259 -8.633531 2.359902 -0.565198 5.928094 17.942938 -17.565105 -43.574544 5.443697 -0.000003 0.000006 155.491975 250.033172 -296.034196 -0.000008 0.000009 -10.615795 349.480945 -125.406590 308.990054 -0.000004 -0.000004 -13.110294 -330.787564 -7.136445 7.981846 -2.636603 -1.718802 6.889701 4.076817 11.926869 11.633206 -4.139095 -0.000001 -0.000003 295.582420 -141.103690 374.945366 -0.000002 0.000002 -10.471803 -23.313958 -4.408893 -1.227003 -0.000002 0.000002 -12.281898 -12.840585 -2.109350 9.411739 2.273399 0.176699 -2.517996 -19.093352 -162.316563 -127.258637 -0.000000 -0.000005 -20.456400 -188.057661 -7.661600 106.301342 -0.000005 -0.000010 -16.635296 69.500597 25.788308 48.152543 -1.914802 0.018100 -2.699296 157.186190 196.802380 154.011887 0.000001 -0.000002 -20.148901 52.128991 66.689680 -42.434183 -0.000001 -0.000001 -16.838301 -41.005160 -2.929209 -5.411281
-28.880100 -9.796595 38.987602 345.965993 -3.422239 10.825149 -0.672997 0.623902 5.369205 -17.326984 -21.111001 20.616561 -0.000000 -0.000005 4.414999 5.717076 -1.777394 -0.232129 -0.000005 -0.000001 10.273297 -49.429516 -20.935092 4.169816 -0.000001 -0.000006 2.173900 -5.316074 -6.681913 -8.670345 2.359900 -0.565207 5.928099 17.864597 -17.511951 -43.723012 5.443699 0.000001 0.000005 155.930022 250.113960 -295.583376 -0.000005 0.000005 -10.615799 349.386415 -125.265219 308.824954 -0.000002 -0.000011 -13.110299 -330.398298 -7.238638 8.259580 -2.636605 -1.718801 6.889703 3.939407 11.785749 11.551044 -4.139102 0.000000 0.000000 296.418927 -141.442248 375.193575 -0.000004 -0.000006 -10.471794 -23.359351 -4.668662 -1.545519 0.000000 -0.000011 -12.281906 -12.283451 -2.054315 9.781888 2.273399 0.176701 -2.518004 -21.525406 -161.037897 -128.291908 -0.000001 -0.000001 -20.456396 -186.300445 -6.199444 106.481304 -0.000009 -0.000007 -16.635296 68.734099 25.804883 47.718929 -1.914802 0.018103 -2.699304 156.845691 197.118590 154.312934 -0.000000 -0.000008 -20.148897 52.598990 66.986910 -42.806787 0.000001 -0.000004 -16.838305 -40.705854 -2.989449 -5.597960
-28.747099 -9.859993 38.984406 346.034404 -3.262885 10.594317 -0.672995 0.623903 5.369209 -17.426475 -21.171225 20.515598 -0.000001 -0.000000 4.415003 5.727911 -1.773028 -0.231941 -0.000001 -0.000001 10.273312 -49.262801 -20.857093 4.237238 -0.000003 -0.000000 2.173899 -5.371648 -6.786674 -8.671965 2.359903 -0.565205 5.928103 17.800040 -17.480196 -43.872870 5.443697 -0.000000 0.000001 156.031478 250.291189 -295.387076 -0.000003 0.000002 -10.615790 348.880708 -125.221724 308.489920 0.000002 0.000000 -13.110293 -330.609187 -7.317294 8.399201 -2.636604 -1.718805 6.889711 3.786205 11.646337 11.522509 -4.139089 -0.000002 0.000002 297.388759 -141.756861 375.467793 -0.000000 -0.000001 -10.471791 -23.429904 -4.881638 -1.826618 -0.000001 -0.000003 -12.281900 -11.648586 -2.002524 10.161881 2.273402 0.176701 -2.518005 -24.656197 -159.273673 -129.557132 -0.000001 -0.000003 -20.456396 -184.002045 -4.185398 106.675670 -0.000007 -0.000005 -16.635298 67.359858 26.186571 47.417284 -1.914799 0.018102 -2.699298 156.076134 197.309125 154.589393 0.000000 -0.000005 -20.148903 53.664062 67.336028 -43.403663 -0.000001 -0.000002 -16.838303 -41.003617 -2.920745 -4.191011
-28.609999 -9.930695 38.988808 346.065987 -3.166276 10.371798 -0.672999 0.623899 5.369207 -17.523851 -21.206233 20.406245 -0.000002 -0.000003 4.415002 5.764884 -1.753426 -0.230273 -0.000002 0.000000 10.273303 -49.097083 -20.773412 4.272971 -0.000001 -0.000000 2.173903 -5.407050 -6.883969 -8.682880 2.359900 -0.565204 5.928096 17.672807 -17.445024 -44.115051 5.443697 -0.000003 0.000003 156.576937 250.416865 -294.882981 -0.000006 0.000009 -10.615800 348.379017 -125.127850 308.083879 0.000002 -0.000000 -13.110295 -330.728825 -7.381589 8.595867 -2.636600 -1.718803 6.889704 3.548623 11.439580 11.528583 -4.139097 -0.000003 -0.000006 298.626881 -142.074178 375.778594 -0.000004 -0.000003 -10.471793 -23.258106 -5.067023 -2.065445 -0.000000 -0.000001 -12.281898 -11.157438 -1.962570 10.527565 2.273397 0.176698 -2.517999 -27.781776 -157.599334 -130.725531 0.000003 -0.000006 -20.456394 -181.878198 -2.209714 106.913142 -0.000008 -0.000009 -16.635296 65.783000 26.980977 47.461069 -1.914800 0.018105 -2.699296 155.869862 197.535464 155.032972 -0.000001 -0.000005 -20.148903 54.199532 67.501878 -43.898422 0.000001 -0.000003 -16.838305 -40.864994 -2.924019 -4.042399
-28.468899 -10.008293 39.000904 346.067107 -3.074554 10.162913 -0.672997 0.623898 5.369208 -17.583079 -21.279984 20.274607 -0.000002 -0.000002 4.415002 5.796308 -1.720418 -0.226662 -0.000002 0.000002 10.273299 -48.887127 -20.660892 4.349119 -0.000000 -0.000007 2.173898 -5.493291 -6.983624 -8.700836 2.359903 -0.565203 5.928098 17.565711 -17.408602 -44.307587 5.443695 0.000001 0.000001 157.134950 250.111829 -294.280312 -0.000005 0.000009 -10.615791 348.185668 -124.901661 307.664068 -0.000005 -0.000004 -13.110302 -330.863461 -7.450064 8.781763 -2.636600 -1.718804 6.889699 3.303276 11.239247 11.589560 -4.139101 -0.000000 -0.000000 300.033463 -142.416671 376.141796 -0.000004 -0.000003 -10.471796 -23.075280 -5.164841 -2.234030 0.000000 0.000002 -12.281894 -10.544087 -1.964464 10.860131 2.273399 0.176698 -2.518002 -31.317869 -155.731264 -131.996793 0.000001 -0.000006 -20.456396 -179.561630 0.067202 107.143873 -0.000008 -0.000008 -16.635294 63.616580 28.210011 47.701273 -1.914800 0.018102 -2.699291 155.763912 197.715726 155.537245 -0.000000 -0.000005 -20.148895 54.875550 67.476716 -44.550711 -0.000000 -0.000000 -16.838299 -40.782595 -2.835648 -4.150455
